# xmcd
#
# Track frame offsets:
#  225
#  12530
#  25705
#  38602
#  50636
#  66765
#  80449
#  92756
#  110072
#  124565
#  136978
#  148413
#  161592
#  172469
#
# Disc length: 2474 seconds
#
# Revision: 0
# Processed by: cddbd v1.5.1PL2 Copyright (c) Steve Scherf et al.
# Submitted via: Collectorz.com_Music_Collector 6.10
#
DISCID=c809a70e
DTITLE=Patti Labelle and The Bluebelles - I Sold My Heart To The Junkman
DYEAR=1900
DGENRE=
TTITLE0=I Sold My Heart To The Junkman
TTITLE1=Danny Boy
TTITLE2=One Phone Call
TTITLE3=Go On (This Is Goodbye)
TTITLE4=Down The Aisle
TTITLE5=Have I Sinned
TTITLE6=Impossible
TTITLE7=Please Hurry Home
TTITLE8=You'll Never Walk Alone
TTITLE9=C'est La Vie
TTITLE10=I Believe
TTITLE11=You Will Fill My Eyes No More
TTITLE12=Decatur Street
TTITLE13=I Walked Right In
EXTD=
EXTT0=
EXTT1=
EXTT2=
EXTT3=
EXTT4=
EXTT5=
EXTT6=
EXTT7=
EXTT8=
EXTT9=
EXTT10=
EXTT11=
EXTT12=
EXTT13=
PLAYORDER=
